<svg width="11" height="17" viewBox="0 0 11 17" fill="none" xmlns="http://www.w3.org/2000/svg">
<path d="M7.91667 16.6667V14.1667H5.83333L8.75 10V12.5H10.8333L7.91667 16.6667ZM0.833333 16.6667C0.597222 16.6667 0.399306 16.5868 0.239583 16.4271C0.0798611 16.2674 0 16.0694 0 15.8333V2.5C0 2.26389 0.0798611 2.06597 0.239583 1.90625C0.399306 1.74653 0.597222 1.66667 0.833333 1.66667H2.5V0H5.83333V1.66667H7.5C7.73611 1.66667 7.93403 1.74653 8.09375 1.90625C8.25347 2.06597 8.33333 2.26389 8.33333 2.5V8.33333C8.04167 8.33333 7.75694 8.35764 7.47917 8.40625C7.20139 8.45486 6.93056 8.52778 6.66667 8.625V3.33333H1.66667V15H3.625C3.73611 15.3194 3.87153 15.6181 4.03125 15.8958C4.19097 16.1736 4.38194 16.4306 4.60417 16.6667H0.833333Z" fill="#001527"/>
</svg>
